<svg xmlns="http://www.w3.org/2000/svg" viewBox="0 0 64 64">
  <defs>
    <linearGradient id="bg" x1="10" y1="8" x2="54" y2="56" gradientUnits="userSpaceOnUse">
      <stop offset="0" stop-color="#18263d"/>
      <stop offset="1" stop-color="#0f1728"/>
    </linearGradient>
    <linearGradient id="accent" x1="14" y1="16" x2="50" y2="48" gradientUnits="userSpaceOnUse">
      <stop offset="0" stop-color="#39d98a"/>
      <stop offset="1" stop-color="#16a34a"/>
    </linearGradient>
  </defs>

  <rect x="4" y="4" width="56" height="56" rx="14" fill="url(#bg)"/>

  <path
    d="M32 14c5.2 4 10.6 5.6 15 6v10.2c0 9.1-5.3 15.2-15 19.8-9.7-4.6-15-10.7-15-19.8V20c4.4-.4 9.8-2 15-6Z"
    fill="#f8fafc"
    opacity="0.94"
  />
  <path
    d="M32 20c3.5 2.4 7.1 3.5 10.4 3.9v6.5c0 6.3-3.6 10.7-10.4 14.1-6.8-3.4-10.4-7.8-10.4-14.1v-6.5c3.3-.4 6.9-1.5 10.4-3.9Z"
    fill="url(#accent)"
  />

  <circle cx="21" cy="24" r="3.1" fill="#0f1728"/>
  <circle cx="43" cy="24" r="3.1" fill="#0f1728"/>
  <circle cx="32" cy="37" r="3.1" fill="#0f1728"/>
  <path
    d="M23.6 25.8 29.8 33M40.4 25.8 34.2 33M32 40.2v4.3"
    fill="none"
    stroke="#0f1728"
    stroke-linecap="round"
    stroke-width="2.8"
  />
</svg>
